<svg width="600" height="450" viewBox="0 0 600 450" fill="none" xmlns="http://www.w3.org/2000/svg">
  <rect width="600" height="450" rx="12" fill="#F9FAFB"/>
  <rect x="1" y="1" width="598" height="448" rx="11" stroke="#a78bfa" stroke-width="2" stroke-dasharray="8 4" opacity="0.3"/>
  <path d="M300 140a35 35 0 0 1 35 35c0 11.9-5.95 22.35-15 28.7V215a5 5 0 0 1-5 5h-30a5 5 0 0 1-5-5v-11.3c-9.05-6.35-15-16.8-15-28.7a35 35 0 0 1 35-35z" stroke="#a78bfa" stroke-width="3" fill="none" opacity="0.5"/>
  <line x1="285" y1="230" x2="315" y2="230" stroke="#a78bfa" stroke-width="3" opacity="0.5"/>
  <text x="300" y="270" text-anchor="middle" font-family="system-ui" font-size="16" fill="#9CA3AF" font-weight="600">Intelligence Dashboard</text>
  <text x="300" y="295" text-anchor="middle" font-family="system-ui" font-size="13" fill="#D1D5DB">Screenshot coming soon</text>
</svg>
