<?xml version="1.0" encoding="utf-8"?>
<!-- Generator: Adobe Illustrator 27.4.0, SVG Export Plug-In . SVG Version: 6.00 Build 0)  -->
<!DOCTYPE svg PUBLIC "-//W3C//DTD SVG 1.1//EN" "http://www.w3.org/Graphics/SVG/1.1/DTD/svg11.dtd" [
	<!ENTITY ns_extend "http://ns.adobe.com/Extensibility/1.0/">
	<!ENTITY ns_ai "http://ns.adobe.com/AdobeIllustrator/10.0/">
	<!ENTITY ns_graphs "http://ns.adobe.com/Graphs/1.0/">
	<!ENTITY ns_vars "http://ns.adobe.com/Variables/1.0/">
	<!ENTITY ns_imrep "http://ns.adobe.com/ImageReplacement/1.0/">
	<!ENTITY ns_sfw "http://ns.adobe.com/SaveForWeb/1.0/">
	<!ENTITY ns_custom "http://ns.adobe.com/GenericCustomNamespace/1.0/">
	<!ENTITY ns_adobe_xpath "http://ns.adobe.com/XPath/1.0/">
]>
<svg version="1.1" id="Layer_1" xmlns:x="&ns_extend;" xmlns:i="&ns_ai;" xmlns:graph="&ns_graphs;"
	 xmlns="http://www.w3.org/2000/svg" xmlns:xlink="http://www.w3.org/1999/xlink" x="0px" y="0px" viewBox="0 0 1024 197.022"
	 style="enable-background:new 0 0 1024 197.022;" xml:space="preserve">
<style type="text/css">
	.icon{fill:#5CD29D;}
	.text{fill:#111827;}
</style>
<metadata>
	<sfw  xmlns="&ns_sfw;">
		<slices></slices>
		<sliceSourceBounds  bottomLeftOrigin="true" height="195.192" width="1014.49" x="4.755" y="-196.107"></sliceSourceBounds>
		<optimizationSettings>
			<targetSettings  fileFormat="PNG24Format" targetSettingsID="0">
				<PNG24Format  filtered="false" interlaced="false" matteColor="#FFFFFF" noMatteColor="false" transparency="true">
					</PNG24Format>
			</targetSettings>
		</optimizationSettings>
	</sfw>
</metadata>
<g>
	<!-- Text paths (gray) -->
	<path class="text" d="M241.796,98.709h16.902v18.764h-16.902v51.707H216.3v-51.707h-13.177V98.709H216.3
		c0.477-9.833,3.7-17.259,9.668-22.272c5.967-5.013,14.919-7.852,26.856-8.522l8.738-0.574l1.432,18.478l-6.731,0.286
		c-5.443,0.192-9.216,1.002-11.316,2.435c-2.101,1.432-3.151,3.963-3.151,7.592V98.709z"/>
	<path class="text" d="M320.859,117.759l-13.894,1.432c-5.539,0.574-9.406,2.054-11.601,4.44c-2.198,2.388-3.295,5.779-3.295,10.171
		v35.378h-25.495V98.709h24.206v12.174c1.622-4.296,4.297-7.566,8.021-9.811c3.724-2.242,8.258-3.509,13.607-3.796l7.018-0.572
		L320.859,117.759z"/>
	<path class="text" d="M397.63,98.709v70.471h-24.779v-9.454c-2.198,3.437-4.99,6.066-8.38,7.878
		c-3.391,1.812-7.283,2.721-11.673,2.721c-9.072,0-15.805-2.506-20.196-7.52c-4.393-5.012-6.588-12.626-6.588-22.846v-41.25h25.495
		v41.824c0,6.876,2.958,10.313,8.879,10.313c3.439,0,6.254-1.241,8.451-3.725c2.197-2.481,3.295-5.73,3.295-9.739V98.709H397.63z"/>
	<path class="text" d="M487.722,98.709v61.876c0,11.648-3.463,20.481-10.384,26.498c-6.925,6.015-17.166,9.023-30.723,9.023
		c-6.399,0-12.604-0.741-18.62-2.221c-6.016-1.482-11.221-3.558-15.613-6.23l6.446-17.332c4.391,2.292,8.952,4.058,13.678,5.3
		c4.727,1.241,9.19,1.862,13.393,1.862c5.633,0,9.811-1.217,12.533-3.652c2.721-2.435,4.081-6.279,4.081-11.531v-5.443
		c-2.101,3.152-5.109,5.658-9.023,7.52c-3.917,1.862-8.165,2.794-12.748,2.794c-6.112,0-11.554-1.431-16.328-4.296
		c-4.776-2.865-8.5-6.947-11.172-12.247c-2.674-5.3-4.011-11.433-4.011-18.405c0-6.969,1.337-13.129,4.011-18.478
		c2.672-5.346,6.395-9.475,11.172-12.389c4.774-2.911,10.216-4.368,16.328-4.368c4.678,0,8.975,0.956,12.892,2.865
		c3.914,1.91,6.921,4.537,9.023,7.878v-9.025H487.722z M458.933,143.899c2.481-2.816,3.724-6.708,3.724-11.673
		c0-5.06-1.242-9.023-3.724-11.888c-2.484-2.865-5.969-4.297-10.457-4.297c-4.393,0-7.83,1.409-10.312,4.225
		c-2.484,2.818-3.725,6.805-3.725,11.961c0,4.966,1.265,8.857,3.796,11.673c2.529,2.818,5.945,4.225,10.241,4.225
		C452.963,148.123,456.449,146.717,458.933,143.899z"/>
	<path class="text" d="M559.409,104.653c5.298,5.109,7.948,13.058,7.948,23.849v40.678h-23.919v-9.884
		c-1.339,3.439-3.581,6.138-6.732,8.093c-3.151,1.957-6.925,2.936-11.316,2.936c-4.87,0-9.263-0.979-13.178-2.936
		c-3.916-1.956-6.995-4.677-9.238-8.163c-2.244-3.485-3.366-7.424-3.366-11.817c0-5.061,1.312-9.096,3.94-12.104
		c2.625-3.007,6.803-5.178,12.532-6.517c5.73-1.335,13.464-2.005,23.204-2.005h3.867v-1.719c0-3.532-0.812-5.99-2.435-7.376
		c-1.624-1.383-4.489-2.077-8.593-2.077c-3.248,0-6.996,0.645-11.244,1.934c-4.249,1.289-8.236,2.936-11.959,4.941l-6.446-16.758
		c4.104-2.481,9.238-4.558,15.398-6.231c6.158-1.668,11.817-2.506,16.973-2.506C545.92,96.99,554.11,99.545,559.409,104.653z
		 M539.858,149.628c2.195-2.435,3.294-5.561,3.294-9.382v-1.719h-2.291c-6.112,0-10.456,0.55-13.034,1.646
		c-2.579,1.1-3.867,2.937-3.867,5.515c0,2.199,0.692,4.011,2.077,5.443c1.382,1.432,3.173,2.149,5.371,2.149
		C534.844,153.281,537.66,152.063,539.858,149.628z"/>
	<path class="text" d="M581.68,169.18V68.2h25.495V169.18H581.68z"/>
	<path class="text" d="M621.927,169.18V68.2h25.495V169.18H621.927z"/>
	<path class="text" d="M710.299,98.852h24.922l-42.97,96.108H666.47l14.179-30.651l-28.79-65.457h26.641l15.469,39.675
		L710.299,98.852z"/>
	<path class="text" d="M732.499,143.111h26.498v26.069h-26.498V143.111z"/>
	<path class="text" d="M829.681,104.653c5.298,5.109,7.948,13.058,7.948,23.849v40.678h-23.919v-9.884
		c-1.339,3.439-3.581,6.138-6.732,8.093c-3.151,1.957-6.925,2.936-11.316,2.936c-4.87,0-9.263-0.979-13.178-2.936
		c-3.917-1.956-6.995-4.677-9.238-8.163c-2.244-3.485-3.366-7.424-3.366-11.817c0-5.061,1.312-9.096,3.94-12.104
		c2.625-3.007,6.803-5.178,12.532-6.517c5.73-1.335,13.464-2.005,23.204-2.005h3.867v-1.719c0-3.532-0.812-5.99-2.435-7.376
		c-1.624-1.383-4.489-2.077-8.593-2.077c-3.248,0-6.996,0.645-11.244,1.934c-4.249,1.289-8.236,2.936-11.959,4.941l-6.446-16.758
		c4.104-2.481,9.238-4.558,15.398-6.231c6.158-1.668,11.817-2.506,16.973-2.506C816.192,96.99,824.381,99.545,829.681,104.653z
		 M810.13,149.628c2.195-2.435,3.294-5.561,3.294-9.382v-1.719h-2.291c-6.112,0-10.456,0.55-13.034,1.646
		c-2.579,1.1-3.867,2.937-3.867,5.515c0,2.199,0.692,4.011,2.077,5.443c1.382,1.432,3.173,2.149,5.371,2.149
		C805.116,153.281,807.932,152.063,810.13,149.628z"/>
	<path class="text" d="M914.757,101.646c4.727,3.103,8.402,7.472,11.029,13.104c2.625,5.636,3.938,12.081,3.938,19.336
		c0,7.258-1.313,13.633-3.938,19.121c-2.628,5.493-6.28,9.719-10.957,12.677c-4.681,2.961-10.076,4.44-16.185,4.44
		c-4.49,0-8.619-0.909-12.389-2.721c-3.774-1.812-6.71-4.248-8.81-7.305v34.662h-25.495V98.709h25.065v9.025
		c2.006-3.341,4.942-5.968,8.81-7.878c3.867-1.909,8.14-2.865,12.819-2.865C904.66,96.99,910.031,98.543,914.757,101.646z
		 M901.008,146.835c2.338-2.959,3.508-7.207,3.508-12.748c0-5.823-1.195-10.287-3.581-13.392c-2.388-3.102-5.778-4.655-10.169-4.655
		c-4.393,0-7.784,1.528-10.169,4.583c-2.388,3.058-3.581,7.448-3.581,13.178c0,5.634,1.193,9.954,3.581,12.962
		c2.386,3.007,5.823,4.512,10.313,4.512C895.3,151.276,898.666,149.797,901.008,146.835z"/>
	<path class="text" d="M1004.277,101.646c4.727,3.103,8.402,7.472,11.029,13.104c2.625,5.636,3.939,12.081,3.939,19.336
		c0,7.258-1.313,13.633-3.939,19.121c-2.628,5.493-6.28,9.719-10.957,12.677c-4.681,2.961-10.076,4.44-16.185,4.44
		c-4.49,0-8.619-0.909-12.389-2.721c-3.774-1.812-6.71-4.248-8.81-7.305v34.662h-25.495V98.709h25.065v9.025
		c2.006-3.341,4.942-5.968,8.81-7.878c3.867-1.909,8.14-2.865,12.819-2.865C994.18,96.99,999.551,98.543,1004.277,101.646z
		 M990.528,146.835c2.338-2.959,3.508-7.207,3.508-12.748c0-5.823-1.195-10.287-3.581-13.392c-2.388-3.102-5.778-4.655-10.169-4.655
		c-4.393,0-7.784,1.528-10.169,4.583c-2.388,3.058-3.581,7.448-3.581,13.178c0,5.634,1.193,9.954,3.581,12.962
		c2.386,3.007,5.823,4.512,10.313,4.512C984.82,151.276,988.186,149.797,990.528,146.835z"/>
	
	<!-- Icon paths (green) -->
	<path class="icon" d="M43.746,163.703c-21.286,0-38.593-5.57-38.978-12.506H4.755v18.063c0,1.724,1.048,3.382,2.958,4.88
		c2.4,1.896,6.167,3.554,10.901,4.867c6.79,1.87,15.57,2.997,25.132,2.997c9.575,0,18.342-1.127,25.132-2.997
		c4.735-1.313,8.501-2.971,10.901-4.867c1.91-1.499,2.958-3.156,2.958-4.88v-18.063h-0.013
		C82.339,158.133,65.045,163.703,43.746,163.703z"/>
	<path class="icon" d="M43.746,135.892c-21.525,0-38.991-5.716-38.991-12.758v18.063c0,1.737,1.061,3.382,2.971,4.881
		c2.56,2.029,6.671,3.78,11.83,5.119c6.644,1.724,15.066,2.745,24.19,2.745c9.138,0,17.546-1.021,24.19-2.745
		c5.172-1.339,9.27-3.09,11.83-5.119c1.91-1.499,2.971-3.143,2.971-4.881v-18.063C82.737,130.176,65.284,135.892,43.746,135.892z"/>
	<path class="icon" d="M43.746,82.326c-21.525,0-38.991,5.703-38.991,12.745v18.063c0,1.777,1.114,3.475,3.117,5
		c2.573,1.976,6.618,3.687,11.684,5c6.644,1.724,15.066,2.759,24.19,2.759c9.138,0,17.546-1.034,24.19-2.759
		c5.066-1.313,9.111-3.024,11.684-5c2.003-1.525,3.117-3.223,3.117-5V95.071C82.737,88.029,65.284,82.326,43.746,82.326z
		 M73.467,95.674c-0.584,4.861-13.66,8.729-29.721,8.729s-29.137-3.869-29.721-8.729c-0.013-0.113-0.027-0.227-0.027-0.34
		c0-5.002,13.315-9.069,29.747-9.069s29.747,4.067,29.747,9.069C73.493,95.448,73.48,95.561,73.467,95.674z"/>
	<path class="icon" d="M63.113,93.345h-2.851c-1.21-2.32-4.526-3.904-8.652-3.904c-1.738,0-4.973,0-7.258,2.081
		c-1.092,0.993-1.46,2.153-1.756,3.084c-0.078,0.245-0.157,0.499-0.256,0.758c-0.254,0.67-0.677,1.057-1.456,1.339
		c-1.013,0.367-2.191,0.544-3.602,0.544c-3.395,0-5.175-1.413-5.175-1.903c0-0.202,0.498-0.92,2.101-1.444
		c1.045-0.342,1.613-1.466,1.271-2.51c-0.342-1.045-1.467-1.614-2.509-1.272c-2.092,0.686-3.583,1.835-4.318,3.226h-2.872
		c-1.099,0-1.989,0.891-1.989,1.989c0,1.098,0.89,1.989,1.989,1.989h2.852c1.211,2.319,4.526,3.902,8.651,3.902
		c1.881,0,3.502-0.255,4.955-0.781c1.866-0.675,3.152-1.908,3.821-3.664c0.127-0.333,0.231-0.658,0.33-0.973
		c0.229-0.721,0.352-1.081,0.641-1.343c1.058-0.965,2.919-1.045,4.58-1.045c3.396,0,5.175,1.413,5.175,1.903
		c0,0.202-0.498,0.921-2.101,1.445c-1.045,0.342-1.613,1.466-1.271,2.51c0.341,1.045,1.467,1.615,2.509,1.272
		c2.092-0.685,3.583-1.835,4.318-3.226h2.873c1.099,0,1.989-0.891,1.989-1.989C65.102,94.236,64.212,93.345,63.113,93.345z"/>
	<path class="icon" d="M134.965,163.955c-21.525,0-38.991-5.716-38.991-12.758v18.063c0,7.042,17.466,12.745,38.991,12.745
		c21.538,0,38.991-5.703,38.991-12.745v-18.063C173.956,158.239,156.502,163.955,134.965,163.955z"/>
	<path class="icon" d="M134.965,135.892c-21.286,0-38.593-5.57-38.978-12.506h-0.013v18.063c0,1.724,1.048,3.382,2.958,4.88
		c2.4,1.896,6.167,3.554,10.901,4.867c6.79,1.87,15.57,2.997,25.132,2.997c9.575,0,18.342-1.127,25.132-2.997
		c4.735-1.313,8.501-2.971,10.901-4.867c1.91-1.499,2.958-3.156,2.958-4.88v-18.063h-0.013
		C173.558,130.322,156.264,135.892,134.965,135.892z"/>
	<path class="icon" d="M134.965,108.081c-21.525,0-38.991-5.716-38.991-12.758v18.063c0,1.737,1.061,3.382,2.971,4.881
		c2.56,2.029,6.671,3.78,11.83,5.119c6.644,1.724,15.066,2.745,24.19,2.745c9.138,0,17.546-1.021,24.19-2.745
		c5.172-1.34,9.27-3.09,11.83-5.119c1.91-1.499,2.971-3.143,2.971-4.881V95.323C173.956,102.365,156.502,108.081,134.965,108.081z"
		/>
	<path class="icon" d="M134.965,54.515c-21.525,0-38.991,5.703-38.991,12.745v18.063c0,1.777,1.114,3.475,3.117,5
		c2.573,1.976,6.618,3.687,11.684,5c6.644,1.724,15.066,2.759,24.19,2.759c9.138,0,17.546-1.034,24.19-2.759
		c5.066-1.313,9.111-3.024,11.684-5c2.003-1.525,3.117-3.223,3.117-5V67.26C173.955,60.218,156.502,54.515,134.965,54.515z
		 M164.685,67.864c-0.584,4.861-13.66,8.729-29.721,8.729s-29.137-3.869-29.721-8.729c-0.013-0.113-0.027-0.227-0.027-0.34
		c0-5.002,13.315-9.069,29.747-9.069s29.747,4.067,29.747,9.069C164.712,67.637,164.698,67.75,164.685,67.864z"/>
	<path class="icon" d="M154.332,65.535h-2.851c-1.21-2.32-4.526-3.904-8.652-3.904c-1.738,0-4.973,0-7.258,2.081
		c-1.092,0.993-1.46,2.153-1.756,3.084c-0.078,0.245-0.157,0.499-0.256,0.758c-0.255,0.67-0.677,1.057-1.456,1.339
		c-1.013,0.367-2.191,0.544-3.602,0.544c-3.395,0-5.175-1.413-5.175-1.903c0-0.202,0.498-0.92,2.101-1.444
		c1.045-0.342,1.613-1.466,1.271-2.51c-0.342-1.045-1.467-1.614-2.509-1.272c-2.092,0.686-3.583,1.835-4.318,3.226h-2.872
		c-1.099,0-1.989,0.891-1.989,1.989s0.89,1.989,1.989,1.989h2.852c1.211,2.319,4.526,3.902,8.651,3.902
		c1.881,0,3.502-0.255,4.955-0.781c1.866-0.675,3.152-1.908,3.821-3.664c0.127-0.333,0.231-0.658,0.33-0.973
		c0.229-0.721,0.352-1.081,0.641-1.343c1.058-0.965,2.919-1.045,4.58-1.045c3.396,0,5.175,1.413,5.175,1.903
		c0,0.202-0.498,0.921-2.101,1.445c-1.045,0.342-1.613,1.466-1.271,2.51c0.341,1.045,1.467,1.615,2.509,1.272
		c2.092-0.685,3.583-1.835,4.318-3.226h2.873c1.099,0,1.989-0.891,1.989-1.989S155.431,65.535,154.332,65.535z"/>
	<path class="icon" d="M54.986,64.626c-0.641,0-1.293-0.104-1.933-0.322l-20.558-7.036c-3.119-1.067-4.782-4.46-3.714-7.579
		c1.067-3.117,4.462-4.78,7.578-3.714l20.558,7.036c3.119,1.067,4.782,4.46,3.714,7.579C59.784,63.068,57.466,64.626,54.986,64.626z
		"/>
	<path class="icon" d="M118.681,33.412c-0.641,0-1.293-0.104-1.933-0.322c-3.119-1.067-4.782-4.46-3.714-7.579l7.036-20.558
		c1.067-3.12,4.459-4.782,7.578-3.714c3.119,1.067,4.782,4.46,3.714,7.579l-7.036,20.558
		C123.479,31.854,121.161,33.412,118.681,33.412z"/>
	<path class="icon" d="M80.581,36.339c-2.206,0-4.327-1.228-5.364-3.343l-9.562-19.513c-1.451-2.961-0.227-6.535,2.733-7.986
		c2.957-1.453,6.535-0.228,7.985,2.733l9.562,19.513c1.451,2.961,0.227,6.535-2.733,7.986
		C82.358,36.143,81.462,36.339,80.581,36.339z"/>
</g>
</svg>
