<?xml version="1.0" encoding="utf-8"?>
<!-- Generator: Adobe Illustrator 27.4.0, SVG Export Plug-In . SVG Version: 6.00 Build 0)  -->
<!DOCTYPE svg PUBLIC "-//W3C//DTD SVG 1.1//EN" "http://www.w3.org/Graphics/SVG/1.1/DTD/svg11.dtd" [
	<!ENTITY ns_extend "http://ns.adobe.com/Extensibility/1.0/">
	<!ENTITY ns_ai "http://ns.adobe.com/AdobeIllustrator/10.0/">
	<!ENTITY ns_graphs "http://ns.adobe.com/Graphs/1.0/">
	<!ENTITY ns_vars "http://ns.adobe.com/Variables/1.0/">
	<!ENTITY ns_imrep "http://ns.adobe.com/ImageReplacement/1.0/">
	<!ENTITY ns_sfw "http://ns.adobe.com/SaveForWeb/1.0/">
	<!ENTITY ns_custom "http://ns.adobe.com/GenericCustomNamespace/1.0/">
	<!ENTITY ns_adobe_xpath "http://ns.adobe.com/XPath/1.0/">
]>
<svg version="1.1" id="Layer_1" xmlns:x="&ns_extend;" xmlns:i="&ns_ai;" xmlns:graph="&ns_graphs;"
	 xmlns="http://www.w3.org/2000/svg" xmlns:xlink="http://www.w3.org/1999/xlink" x="0px" y="0px" viewBox="0 0 500 500"
	 style="enable-background:new 0 0 500 500;" xml:space="preserve">
<style type="text/css">
	.st0{fill:#5CD29D;}
</style>
<metadata>
	<sfw  xmlns="&ns_sfw;">
		<slices></slices>
		<sliceSourceBounds  bottomLeftOrigin="true" height="479.638" width="448.148" x="25.926" y="-489.819"></sliceSourceBounds>
		<optimizationSettings>
			<targetSettings  fileFormat="PNG24Format" targetSettingsID="0">
				<PNG24Format  filtered="false" interlaced="false" matteColor="#FFFFFF" noMatteColor="false" transparency="true">
					</PNG24Format>
			</targetSettings>
		</optimizationSettings>
	</sfw>
</metadata>
<g>
	<path class="st0" d="M129.198,441.345c-56.378,0-102.218-14.753-103.237-33.124h-0.035v47.842c0,4.566,2.775,8.957,7.833,12.927
		c6.358,5.023,16.334,9.414,28.874,12.891c17.985,4.953,41.239,7.939,66.565,7.939c25.361,0,48.58-2.986,66.565-7.939
		c12.54-3.478,22.516-7.868,28.874-12.891c5.058-3.969,7.833-8.36,7.833-12.927V408.22h-0.035
		C231.416,426.591,185.611,441.345,129.198,441.345z"/>
	<path class="st0" d="M129.198,367.684c-57.01,0-103.272-15.139-103.272-33.792v47.842c0,4.602,2.81,8.957,7.869,12.927
		c6.779,5.374,17.669,10.011,31.333,13.559c17.598,4.566,39.904,7.271,64.071,7.271c24.202,0,46.472-2.705,64.071-7.271
		c13.699-3.548,24.553-8.185,31.333-13.559c5.058-3.969,7.868-8.325,7.868-12.927v-47.842
		C232.47,352.545,186.244,367.684,129.198,367.684z"/>
	<path class="st0" d="M129.198,225.808c-57.01,0-103.272,15.104-103.272,33.757v47.842c0,4.707,2.951,9.203,8.255,13.243
		c6.815,5.234,17.528,9.765,30.946,13.243c17.598,4.567,39.904,7.306,64.071,7.306c24.202,0,46.472-2.74,64.071-7.306
		c13.418-3.477,24.132-8.009,30.946-13.243c5.304-4.04,8.255-8.536,8.255-13.243v-47.842
		C232.47,240.913,186.244,225.808,129.198,225.808z M207.917,261.163c-1.546,12.874-36.18,23.12-78.719,23.12
		s-77.173-10.246-78.718-23.12c-0.035-0.3-0.07-0.601-0.07-0.901c0-13.249,35.267-24.021,78.789-24.021s78.789,10.772,78.789,24.021
		C207.987,260.562,207.952,260.863,207.917,261.163z"/>
	<path class="st0" d="M180.494,254.994h-7.551c-3.206-6.143-11.987-10.339-22.917-10.339c-4.604,0-13.172,0-19.224,5.513
		c-2.893,2.631-3.868,5.701-4.65,8.168c-0.206,0.648-0.415,1.321-0.677,2.007c-0.674,1.773-1.792,2.799-3.856,3.547
		c-2.683,0.971-5.802,1.441-9.541,1.441c-8.993,0-13.706-3.742-13.706-5.039c0-0.535,1.319-2.436,5.564-3.825
		c2.767-0.906,4.272-3.883,3.367-6.648c-0.906-2.768-3.885-4.274-6.646-3.369c-5.541,1.816-9.491,4.859-11.438,8.545h-7.607
		c-2.911,0-5.269,2.36-5.269,5.269c0,2.909,2.358,5.269,5.269,5.269h7.553c3.207,6.142,11.987,10.336,22.914,10.336
		c4.983,0,9.276-0.676,13.124-2.069c4.943-1.787,8.348-5.053,10.121-9.704c0.336-0.882,0.611-1.743,0.875-2.576
		c0.607-1.911,0.933-2.864,1.698-3.557c2.803-2.556,7.73-2.768,12.13-2.768c8.994,0,13.708,3.742,13.708,5.039
		c0,0.535-1.319,2.439-5.564,3.828c-2.767,0.906-4.272,3.883-3.367,6.648c0.904,2.768,3.887,4.278,6.646,3.369
		c5.54-1.815,9.489-4.859,11.436-8.545h7.609c2.911,0,5.269-2.36,5.269-5.269C185.763,257.354,183.405,254.994,180.494,254.994z"/>
	<path class="st0" d="M370.802,442.012c-57.01,0-103.272-15.14-103.272-33.792v47.842c0,18.652,46.262,33.757,103.272,33.757
		c57.045,0,103.272-15.105,103.272-33.757V408.22C474.074,426.872,427.847,442.012,370.802,442.012z"/>
	<path class="st0" d="M370.802,367.684c-56.378,0-102.218-14.753-103.237-33.124h-0.035v47.842c0,4.566,2.775,8.957,7.833,12.927
		c6.358,5.023,16.334,9.414,28.874,12.891c17.985,4.953,41.239,7.939,66.565,7.939c25.361,0,48.58-2.986,66.565-7.939
		c12.54-3.478,22.516-7.868,28.874-12.891c5.058-3.969,7.833-8.36,7.833-12.927V334.56h-0.035
		C473.02,352.931,427.215,367.684,370.802,367.684z"/>
	<path class="st0" d="M370.802,294.024c-57.01,0-103.272-15.139-103.272-33.792v47.842c0,4.602,2.81,8.957,7.869,12.927
		c6.779,5.374,17.669,10.011,31.333,13.559c17.598,4.566,39.904,7.271,64.071,7.271c24.202,0,46.472-2.705,64.071-7.271
		c13.699-3.548,24.553-8.185,31.333-13.559c5.058-3.969,7.868-8.325,7.868-12.927v-47.842
		C474.074,278.884,427.847,294.024,370.802,294.024z"/>
	<path class="st0" d="M370.802,152.148c-57.01,0-103.272,15.104-103.272,33.757v47.842c0,4.707,2.951,9.203,8.255,13.243
		c6.815,5.234,17.528,9.765,30.946,13.243c17.598,4.567,39.904,7.306,64.071,7.306c24.202,0,46.472-2.74,64.071-7.306
		c13.418-3.477,24.132-8.009,30.946-13.243c5.304-4.04,8.255-8.536,8.255-13.243v-47.842
		C474.074,167.252,427.847,152.148,370.802,152.148z M449.52,187.503c-1.546,12.874-36.18,23.12-78.719,23.12
		s-77.173-10.246-78.718-23.12c-0.035-0.3-0.07-0.601-0.07-0.901c0-13.249,35.267-24.021,78.789-24.021s78.789,10.772,78.789,24.021
		C449.591,186.902,449.555,187.202,449.52,187.503z"/>
	<path class="st0" d="M422.098,181.334h-7.551c-3.206-6.143-11.987-10.339-22.917-10.339c-4.603,0-13.172,0-19.224,5.513
		c-2.893,2.631-3.868,5.701-4.65,8.168c-0.206,0.648-0.415,1.321-0.677,2.007c-0.674,1.773-1.792,2.799-3.856,3.547
		c-2.683,0.971-5.802,1.441-9.541,1.441c-8.993,0-13.706-3.742-13.706-5.039c0-0.535,1.319-2.436,5.564-3.825
		c2.767-0.906,4.272-3.883,3.367-6.648c-0.906-2.768-3.885-4.274-6.646-3.369c-5.541,1.816-9.491,4.859-11.438,8.545h-7.607
		c-2.911,0-5.269,2.36-5.269,5.269c0,2.909,2.358,5.269,5.269,5.269h7.553c3.207,6.142,11.987,10.336,22.914,10.336
		c4.983,0,9.276-0.676,13.124-2.068c4.943-1.787,8.348-5.053,10.121-9.704c0.336-0.882,0.611-1.743,0.875-2.576
		c0.607-1.911,0.933-2.864,1.698-3.557c2.803-2.556,7.73-2.768,12.13-2.768c8.994,0,13.708,3.742,13.708,5.039
		c0,0.535-1.319,2.439-5.564,3.828c-2.767,0.906-4.272,3.883-3.367,6.648c0.904,2.768,3.887,4.278,6.646,3.369
		c5.54-1.815,9.489-4.859,11.436-8.545h7.609c2.911,0,5.269-2.36,5.269-5.269C427.367,183.694,425.008,181.334,422.098,181.334z"/>
	<path class="st0" d="M158.969,178.927c-1.698,0-3.423-0.274-5.12-0.854L99.4,159.436c-8.26-2.827-12.665-11.814-9.836-20.074
		c2.825-8.257,11.817-12.661,20.073-9.838l54.45,18.637c8.26,2.827,12.665,11.814,9.836,20.074
		C171.677,174.801,165.538,178.927,158.969,178.927z"/>
	<path class="st0" d="M327.672,96.253c-1.698,0-3.423-0.274-5.12-0.854c-8.26-2.827-12.665-11.814-9.836-20.074l18.635-54.45
		c2.825-8.264,11.809-12.665,20.073-9.838c8.26,2.827,12.665,11.814,9.836,20.074l-18.635,54.45
		C340.38,92.126,334.242,96.253,327.672,96.253z"/>
	<path class="st0" d="M226.759,104.006c-5.844,0-11.461-3.252-14.207-8.854l-25.326-51.681c-3.842-7.842-0.6-17.309,7.24-21.151
		c7.831-3.849,17.308-0.604,21.15,7.238l25.326,51.681c3.842,7.842,0.6,17.309-7.24,21.151
		C231.466,103.488,229.094,104.006,226.759,104.006z"/>
</g>
</svg>
